<svg width="30" height="30" viewBox="0 0 30 30" fill="none" xmlns="http://www.w3.org/2000/svg">
<g id="bx:bxs-phone">
<path id="Vector" d="M25.6089 21.425L20.5276 16.805C20.2874 16.5867 19.9718 16.4703 19.6474 16.4803C19.3229 16.4903 19.0151 16.626 18.7889 16.8587L15.7976 19.935C15.0776 19.7975 13.6301 19.3462 12.1401 17.86C10.6501 16.3687 10.1989 14.9175 10.0651 14.2025L13.1389 11.21C13.3719 10.9839 13.5078 10.676 13.5178 10.3515C13.5278 10.027 13.4112 9.71129 13.1926 9.47124L8.57386 4.39124C8.35516 4.15044 8.05121 4.00437 7.72655 3.98407C7.40189 3.96376 7.08211 4.07082 6.83511 4.28249L4.12261 6.60874C3.9065 6.82564 3.77751 7.11431 3.76011 7.41999C3.74136 7.73249 3.38386 15.135 9.12386 20.8775C14.1314 25.8837 20.4039 26.25 22.1314 26.25C22.3839 26.25 22.5389 26.2425 22.5801 26.24C22.8858 26.2229 23.1743 26.0933 23.3901 25.8762L25.7151 23.1625C25.9276 22.9163 26.0355 22.5968 26.0156 22.2721C25.9958 21.9475 25.8498 21.6435 25.6089 21.425Z" fill="#C94842"/>
</g>
</svg>
