<svg width="32" height="32" viewBox="0 0 32 32" fill="none" xmlns="http://www.w3.org/2000/svg">
<g id="entypo:location-pin">
<path id="Vector" d="M16 3.21436C11.5808 3.21436 8 6.78076 8 11.1984C8 18.8368 16 28.7984 16 28.7984C16 28.7984 24 18.8352 24 11.1984C24 6.78235 20.4192 3.21436 16 3.21436ZM16 15.616C14.8543 15.616 13.7555 15.1608 12.9453 14.3507C12.1351 13.5405 11.68 12.4417 11.68 11.296C11.68 10.1502 12.1351 9.05141 12.9453 8.24125C13.7555 7.4311 14.8543 6.97596 16 6.97596C17.1457 6.97596 18.2445 7.4311 19.0547 8.24125C19.8649 9.05141 20.32 10.1502 20.32 11.296C20.32 12.4417 19.8649 13.5405 19.0547 14.3507C18.2445 15.1608 17.1457 15.616 16 15.616Z" fill="#C94842"/>
</g>
</svg>
